<svg height="235.70226" viewBox="0 0 43.131961 23.834291" width="424.264069" xmlns="http://www.w3.org/2000/svg"><g transform="matrix(.08711914 0 0 .08711914 -9.217414 -3.62711)"><path d="m172.07 65.15c24.57-13.04 51.95-21.7 79.93-22.02 98.34.06 196.68-.08 295.02.07l-.57.91c-12.5 19.3-23.96 39.25-34.89 59.47-26.52.31-53.04.06-79.56.14-59.35-.01-118.7.03-178.04-.02-5.39.11-10.62 1.71-15.59 3.66-12.96 5.34-24.57 13.67-34.23 23.78-6.26 7.49-12.56 15.53-14.77 25.25-4.18 16.88-2.57 35.61 6.24 50.79 5.3 10.54 13.94 19.05 23.78 25.4 16.4 10.26 36.63 13.24 55.59 10.54 3.95-1.74 7.22-4.86 10.5-7.65 7.56-6.77 9.32-17.86 7.48-27.44-.7-3.16-1.29-6.92-4.27-8.79-3.12-2.09-6.25-4.19-8.85-6.92 31.08.1 62.17.36 93.26.23-.18.37-.52 1.09-.7 1.45-20.06 35.04-40.5 69.88-60.55 104.93-2.06 3.51-3.72 7.35-6.54 10.34-5.62 1.56-11.56.75-17.31.99-12.34.33-24.65-.62-36.98-.78-23.35-2.26-47.22-6.63-67.75-18.54-6.16-3.12-11.91-6.97-18.01-10.17-15.61-10.47-28.78-24.39-38.88-40.21-13.79-21.82-20.42-48.01-18.86-73.76 1.96-42.07 28.32-81.04 64.55-101.65z"/><path d="m511.56 103.58c10.93-20.22 22.39-40.17 34.89-59.47.73.71 1.51 1.37 2.34 1.99-12.62 19.3-23.94 39.4-35.05 59.59-85.6.09-171.19-.01-256.78.06-16.32 1.57-31.24 10.14-43.32 20.87-8.19 6.99-15.31 15.44-19.84 25.27-3.98 9.48-4.83 19.91-4.37 30.08.07 8.79 3.19 17.09 6.18 25.21-8.81-15.18-10.42-33.91-6.24-50.79 2.21-9.72 8.51-17.76 14.77-25.25 9.66-10.11 21.27-18.44 34.23-23.78 4.97-1.95 10.2-3.55 15.59-3.66 59.34.05 118.69.01 178.04.02 26.52-.08 53.04.17 79.56-.14z" fill="#dc0000"/><path d="m433.71 119.69c8.69-.86 17.53-.11 26.27-.12 14.96.05 29.93-.23 44.88.38-.32.51-.97 1.54-1.29 2.05-2.76 3.9-5.23 7.99-7.49 12.19-20.95 34.42-41.62 69-62.42 103.51-1.94 2.98-3.75 6.07-5.02 9.41 1.08.2 2.18.37 3.28.43 27.72.43 55.46-.18 83.16 1.07-.16.35-.5 1.06-.67 1.42-11.72 20.63-24.72 40.53-36.14 61.34-18.41.57-36.84 0-55.26.29-31.01.04-62.02.17-93.03.13-2.18.02-4.37.09-6.54.24-.57.04-1.69.11-2.26.15 11.83-22.78 25.86-44.32 38.16-66.84 24.81-41.87 49.43-83.86 74.37-125.65z"/><path d="m496.08 134.19c2.26-4.2 4.73-8.29 7.49-12.19.79.09 2.36.25 3.15.34-22.46 37.05-44.74 74.21-67.11 111.32-2.48 4.67-6.11 8.76-7.69 13.88-1.1-.06-2.2-.23-3.28-.43 1.27-3.34 3.08-6.43 5.02-9.41 20.8-34.51 41.47-69.09 62.42-103.51z" fill="#dc0000"/><path d="m551.4 196.41c7.88-8.11 21.13-10.19 31.12-4.85 4.75 2.34 8.47 6.35 11.4 10.69 3.95 8.09 4.05 18.24-.53 26.1-2.81 5.36-7.61 9.62-13.29 11.7-7.67 2.98-16.36 1.94-23.77-1.3-6.15-4.52-11.14-11.15-12.4-18.81-1.56-8.44 1.33-17.53 7.47-23.53z"/><path d="m311.85 298.93c20.05-35.05 40.49-69.89 60.55-104.93.54.35 1.61 1.06 2.15 1.41.2 1.81-1.59 3.27-2.27 4.89-21.61 37.35-43.18 74.73-64.76 112.1-27.61.4-55.47.84-82.68-4.59-15.4-3.18-30.24-8.99-43.74-17.03-5.34-3.21-11.21-5.77-15.84-10.01 6.1 3.2 11.85 7.05 18.01 10.17 20.53 11.91 44.4 16.28 67.75 18.54 12.33.16 24.64 1.11 36.98.78 5.75-.24 11.69.57 17.31-.99 2.82-2.99 4.48-6.83 6.54-10.34z" fill="#dc0000"/><path d="m474.23 198.27c22.35-.3 44.71-.1 67.06-.1-.52 1.48-1.25 3.47-3.25 3.05-21.98-.1-43.96.4-65.94.21.73-1.04 1.43-2.1 2.13-3.16z"/><path d="m593.92 202.25c4.79 6.2 5.68 14.58 4.23 22.08-3.17 12.99-17.16 22.22-30.36 19.68-4.09-1-8.22-2.47-11.46-5.26 7.41 3.24 16.1 4.28 23.77 1.3 5.68-2.08 10.48-6.34 13.29-11.7 4.58-7.86 4.48-18.01.53-26.1z" fill="#dc0000"/><path d="m466.83 209.81c.68-1.67 2.13-3.15 4.08-3 22.32-.04 44.63-.06 66.95.01.01.76.03 2.28.04 3.04-23.69-.03-47.38.09-71.07-.05z"/><path d="m459.67 219.77c1.18-1.36 2.03-3.67 4.25-3.2 24 .02 48-.07 71.99.05.01.82.03 2.46.04 3.29-25.42-.14-50.85.12-76.28-.14z"/><path d="m453.91 229.45c.77-1.22 1.43-3.26 3.22-3.1 26.92-.01 53.84-.02 80.76.01 1.64-.07 2.13 2.05 3.09 3.08-29.02 0-58.05-.01-87.07.01z"/><path d="m450.28 236.42c31.89-.31 63.77.24 95.66.15 2.26-.26 3.6 1.95 5.22 3.14-34.44-.13-68.89-.01-103.33-.06.8-1.09 1.61-2.17 2.45-3.23z"/><path d="m528.2 250.14c.83-1.15 1.33-2.84 2.84-3.26 8.65-.51 17.3.47 25.96.24 10.36.25 20.72.26 31.08.49-.19.36-.58 1.09-.77 1.46-11.99 21.35-24.27 42.54-37.35 63.24-18.23.22-36.48-.17-54.71-.16-.64 0-1.91 0-2.54 0 4.88-10.29 11.29-19.78 16.83-29.73 6.14-10.81 12.54-21.46 18.66-32.28z"/><g fill="#dc0000"><path d="m549.96 312.31c13.08-20.7 25.36-41.89 37.35-63.24.87.61 1.75 1.21 2.63 1.82-7.33 12.4-14.25 25.06-21.73 37.39-5.3 8.73-10.61 17.45-15.68 26.31-19.06.4-38.12-.29-57.18.03-.02-.61-.08-1.85-.1-2.47 18.23-.01 36.48.38 54.71.16z"/><path d="m478.27 311.37c11.42-20.81 24.42-40.71 36.14-61.34.74.68 2.95 1.26 1.99 2.65-12.07 20.42-24.26 40.77-36.54 61.07-22.28-.07-44.57.01-66.85-.04-5.02-.22-9.97.9-14.98.68-24.81-.1-49.62.07-74.43.12-.04-.62-.12-1.86-.16-2.48 2.17-.15 4.36-.22 6.54-.24 31.01.04 62.02-.09 93.03-.13 18.42-.29 36.85.28 55.26-.29z"/></g></g></svg>